<svg xmlns="http://www.w3.org/2000/svg" xmlns:xlink="http://www.w3.org/1999/xlink" xmlns:inkscape="http://www.inkscape.org/namespaces/inkscape" version="1.1" width="1701" height="1701" viewBox="0 0 1701 1701">
<g inkscape:groupmode="layer" inkscape:label="Layer 1">
<path transform="matrix(1,0,0,-1,0,1701)" d="M.1607 1700.9481H1700.9481V.1607H.1607Z" fill="#0c0331" fill-rule="evenodd"/>
<path transform="matrix(1,0,0,-1,0,1701)" stroke-width=".5669" stroke-linecap="butt" stroke-miterlimit="22.925585" stroke-linejoin="miter" fill="none" stroke="#231f20" d="M.1607 1700.9481H1700.9481V.1607H.1607Z"/>
<path transform="matrix(1,0,0,-1,0,1701)" d="M393.465 558.2752H1296.328V563.9445H393.465Z" fill="#9f8f5e" fill-rule="evenodd"/>
<path transform="matrix(1,0,0,-1,0,1701)" stroke-width=".5669" stroke-linecap="butt" stroke-miterlimit="22.925585" stroke-linejoin="miter" fill="none" stroke="#150b4a" d="M393.465 558.2752H1296.328V563.9445H393.465Z"/>
<path transform="matrix(1,0,0,-1,0,1701)" d="M438.5242 440.6264V486.3725H424.5542V492.4525H458.2125V486.3725H444.1703V440.6264ZM463.8583 440.6264V492.4525H469.5043V471.0997H491.5811V492.4525H497.2269V440.6264H491.5811V465.0194H469.5043V440.6264ZM506.8539 440.6264V492.4525H537.5443V486.3725H512.4997V470.4483H536.0241V464.368H512.4997V446.7064H538.5577V440.6264Z" fill="#ffffff"/>
<path transform="matrix(1,0,0,-1,0,1701)" stroke-width="1.4173" stroke-linecap="butt" stroke-miterlimit="22.925585" stroke-linejoin="miter" fill="none" stroke="#150e3e" d="M438.5242 440.6264V486.3725H424.5542V492.4525H458.2125V486.3725H444.1703V440.6264ZM463.8583 440.6264V492.4525H469.5043V471.0997H491.5811V492.4525H497.2269V440.6264H491.5811V465.0194H469.5043V440.6264ZM506.8539 440.6264V492.4525H537.5443V486.3725H512.4997V470.4483H536.0241V464.368H512.4997V446.7064H538.5577V440.6264Z"/>
<path transform="matrix(1,0,0,-1,0,1701)" d="M587.8987 440.6264 604.2572 492.4525H610.3375L627.6368 440.6264H621.1947L616.3452 456.3334H598.3943L593.8339 440.6264ZM600.0591 461.9069H614.6079L610.1201 476.2389C608.745 480.6541 607.7316 484.2734 607.1525 487.0239 606.5734 483.6943 605.7771 480.3647 604.7637 477.1074ZM632.1246 440.6264V492.4525H650.9441C654.9253 492.4525 657.8206 491.946 659.7026 491.0049 661.5122 490.064 663.1044 488.3992 664.2626 486.1553 665.4932 483.9114 666.0723 481.3055 666.0723 478.338 666.0723 474.4293 665.0589 471.2445 663.0321 468.8558 661.0054 466.3947 658.0378 464.8748 654.1291 464.2231 655.7216 463.2823 656.9521 462.3412 657.7481 461.3278 659.4131 459.3736 660.8608 457.1297 662.1636 454.7409L669.5467 440.6264H662.5256L656.8072 451.4114C654.6356 455.6098 652.9708 458.4325 651.8129 459.8802 650.7269 461.4004 649.6413 462.3412 648.6279 462.848 647.5422 463.4271 646.0946 463.6443 644.2126 463.6443H637.7706V440.6264ZM637.7706 469.5795H649.8584C652.4643 469.5795 654.4911 469.8692 655.8661 470.5206 657.2415 471.172 658.2549 472.1854 659.1234 473.5607 659.9197 474.9358 660.2817 476.5283 660.2817 478.338 660.2817 480.9438 659.5577 482.9703 657.9652 484.4906 656.4453 486.0105 654.2014 486.7345 651.1612 486.7345H637.7706Z" fill="#ffffff"/>
<path transform="matrix(1,0,0,-1,0,1701)" stroke-width="1.4173" stroke-linecap="butt" stroke-miterlimit="22.925585" stroke-linejoin="miter" fill="none" stroke="#150e3e" d="M587.8987 440.6264 604.2572 492.4525H610.3375L627.6368 440.6264H621.1947L616.3452 456.3334H598.3943L593.8339 440.6264ZM600.0591 461.9069H614.6079L610.1201 476.2389C608.745 480.6541 607.7316 484.2734 607.1525 487.0239 606.5734 483.6943 605.7771 480.3647 604.7637 477.1074ZM632.1246 440.6264V492.4525H650.9441C654.9253 492.4525 657.8206 491.946 659.7026 491.0049 661.5122 490.064 663.1044 488.3992 664.2626 486.1553 665.4932 483.9114 666.0723 481.3055 666.0723 478.338 666.0723 474.4293 665.0589 471.2445 663.0321 468.8558 661.0054 466.3947 658.0378 464.8748 654.1291 464.2231 655.7216 463.2823 656.9521 462.3412 657.7481 461.3278 659.4131 459.3736 660.8608 457.1297 662.1636 454.7409L669.5467 440.6264H662.5256L656.8072 451.4114C654.6356 455.6098 652.9708 458.4325 651.8129 459.8802 650.7269 461.4004 649.6413 462.3412 648.6279 462.848 647.5422 463.4271 646.0946 463.6443 644.2126 463.6443H637.7706V440.6264ZM637.7706 469.5795H649.8584C652.4643 469.5795 654.4911 469.8692 655.8661 470.5206 657.2415 471.172 658.2549 472.1854 659.1234 473.5607 659.9197 474.9358 660.2817 476.5283 660.2817 478.338 660.2817 480.9438 659.5577 482.9703 657.9652 484.4906 656.4453 486.0105 654.2014 486.7345 651.1612 486.7345H637.7706Z"/>
<path transform="matrix(1,0,0,-1,0,1701)" d="M684.8558 440.6264V486.3725H670.8858V492.4525H704.5441V486.3725H690.5018V440.6264Z" fill="#ffffff"/>
<path transform="matrix(1,0,0,-1,0,1701)" stroke-width="1.4173" stroke-linecap="butt" stroke-miterlimit="22.925585" stroke-linejoin="miter" fill="none" stroke="#150e3e" d="M684.8558 440.6264V486.3725H670.8858V492.4525H704.5441V486.3725H690.5018V440.6264Z"/>
<path transform="matrix(1,0,0,-1,0,1701)" d="M757.1546 465.8882C757.1546 474.7187 759.1088 481.4504 763.0174 486.2276 766.8539 490.9326 771.7034 493.3213 777.5666 493.3213 781.2581 493.3213 784.7325 492.2354 787.7724 490.1363 790.8849 488.0373 793.3459 484.9248 795.1555 480.9438 796.9652 476.8903 797.8337 472.0405 797.8337 466.467 797.8337 458.7945 796.0966 452.5696 792.6222 447.7198 788.7858 442.436 783.7191 439.7579 777.494 439.7579 771.1968 439.7579 766.2025 442.5083 762.366 447.9369 758.8916 452.9316 757.1546 458.8668 757.1546 465.8882ZM762.9452 465.7433C762.9452 459.3736 764.3928 454.4515 767.2158 450.9048 769.9663 447.3581 773.4407 445.6208 777.494 445.6208 781.6198 445.6208 785.022 447.4304 787.845 450.9771 790.6677 454.5238 792.0431 459.7356 792.0431 466.6842 792.0431 471.0997 791.3191 475.0807 789.8715 478.6274 788.7858 481.3055 787.121 483.4049 784.8771 485.0697 782.6332 486.6619 780.2447 487.4581 777.5666 487.4581 773.2959 487.4581 769.8214 485.7211 767.071 482.1744 764.3205 478.6274 762.9452 473.1987 762.9452 465.7433ZM805.2891 440.6264V492.4525H833.9528V486.3725H810.9351V470.2311H830.8403V464.1508H810.9351V440.6264ZM891.0629 440.6264V492.4525H919.7266V486.3725H896.709V470.2311H916.6141V464.1508H896.709V440.6264ZM927.9782 440.6264V492.4525H933.6243V440.6264ZM943.251 440.6264V492.4525H949.0419L971.3358 451.7011V492.4525H976.6922V440.6264H970.9739L948.6799 481.3781V440.6264ZM986.3915 440.6264V492.4525H1017.0819V486.3725H992.0373V470.4483H1015.5617V464.368H992.0373V446.7064H1018.0953V440.6264ZM1075.0606 440.6264V492.4525H1080.7064V446.7064H1101.6253V440.6264ZM1109.4423 440.6264V492.4525H1115.0884V440.6264ZM1137.0203 440.6264 1120.5894 492.4525H1126.6696L1137.7443 454.8135C1138.6128 451.9182 1139.3366 449.0952 1139.9882 446.3447 1140.6397 449.1675 1141.3633 451.9905 1142.2318 454.8135L1153.7409 492.4525H1159.4591L1142.8109 440.6264ZM1165.5391 440.6264V492.4525H1171.1852V440.6264ZM1180.8119 440.6264V492.4525H1186.6028L1208.8967 451.7011V492.4525H1214.253V440.6264H1208.5347L1186.2409 481.3781V440.6264ZM1243.8576 460.9661V467.0461H1261.8085V447.8647C1259.058 445.1865 1256.235 443.1597 1253.2675 441.7846 1250.2998 440.4093 1247.2597 439.7579 1244.1472 439.7579 1240.0214 439.7579 1236.33 440.7712 1233.0726 442.8703 1229.8153 444.9694 1227.282 447.9369 1225.3275 451.9182 1223.4456 455.8992 1222.5048 460.749 1222.5048 466.3225 1222.5048 471.9682 1223.4456 476.8903 1225.4 481.0884 1227.282 485.2868 1229.8153 488.3267 1232.8554 490.3534 1235.9679 492.3079 1239.5872 493.3213 1243.8576 493.3213 1246.97 493.3213 1249.6482 492.7422 1252.0369 491.584 1254.3532 490.426 1256.235 488.7612 1257.7553 486.6619 1259.2752 484.5628 1260.4334 481.5952 1261.1571 477.9037L1256.0905 476.2389C1255.4391 479.2065 1254.5702 481.3781 1253.4846 482.8258 1252.4712 484.2734 1251.0961 485.4314 1249.431 486.2276 1247.694 487.0239 1245.812 487.4581 1243.713 487.4581 1240.6005 487.4581 1237.9224 486.7345 1235.6785 485.2142 1233.5068 483.6943 1231.6972 481.3781 1230.3222 478.2657 1228.9467 475.0807 1228.2953 471.2445 1228.2953 466.6842 1228.2953 459.7356 1229.743 454.5238 1232.6383 451.122 1235.5336 447.6475 1239.2974 445.9105 1244.0025 445.9105 1246.174 445.9105 1248.4902 446.417 1250.8064 447.5027 1253.1226 448.5886 1254.9323 449.8191 1256.3076 451.2668V460.9661Z" fill="#ffffff"/>
<path transform="matrix(1,0,0,-1,0,1701)" stroke-width="1.4173" stroke-linecap="butt" stroke-miterlimit="22.925585" stroke-linejoin="miter" fill="none" stroke="#150e3e" d="M757.1546 465.8882C757.1546 474.7187 759.1088 481.4504 763.0174 486.2276 766.8539 490.9326 771.7034 493.3213 777.5666 493.3213 781.2581 493.3213 784.7325 492.2354 787.7724 490.1363 790.8849 488.0373 793.3459 484.9248 795.1555 480.9438 796.9652 476.8903 797.8337 472.0405 797.8337 466.467 797.8337 458.7945 796.0966 452.5696 792.6222 447.7198 788.7858 442.436 783.7191 439.7579 777.494 439.7579 771.1968 439.7579 766.2025 442.5083 762.366 447.9369 758.8916 452.9316 757.1546 458.8668 757.1546 465.8882ZM762.9452 465.7433C762.9452 459.3736 764.3928 454.4515 767.2158 450.9048 769.9663 447.3581 773.4407 445.6208 777.494 445.6208 781.6198 445.6208 785.022 447.4304 787.845 450.9771 790.6677 454.5238 792.0431 459.7356 792.0431 466.6842 792.0431 471.0997 791.3191 475.0807 789.8715 478.6274 788.7858 481.3055 787.121 483.4049 784.8771 485.0697 782.6332 486.6619 780.2447 487.4581 777.5666 487.4581 773.2959 487.4581 769.8214 485.7211 767.071 482.1744 764.3205 478.6274 762.9452 473.1987 762.9452 465.7433ZM805.2891 440.6264V492.4525H833.9528V486.3725H810.9351V470.2311H830.8403V464.1508H810.9351V440.6264ZM891.0629 440.6264V492.4525H919.7266V486.3725H896.709V470.2311H916.6141V464.1508H896.709V440.6264ZM927.9782 440.6264V492.4525H933.6243V440.6264ZM943.251 440.6264V492.4525H949.0419L971.3358 451.7011V492.4525H976.6922V440.6264H970.9739L948.6799 481.3781V440.6264ZM986.3915 440.6264V492.4525H1017.0819V486.3725H992.0373V470.4483H1015.5617V464.368H992.0373V446.7064H1018.0953V440.6264ZM1075.0606 440.6264V492.4525H1080.7064V446.7064H1101.6253V440.6264ZM1109.4423 440.6264V492.4525H1115.0884V440.6264ZM1137.0203 440.6264 1120.5894 492.4525H1126.6696L1137.7443 454.8135C1138.6128 451.9182 1139.3366 449.0952 1139.9882 446.3447 1140.6397 449.1675 1141.3633 451.9905 1142.2318 454.8135L1153.7409 492.4525H1159.4591L1142.8109 440.6264ZM1165.5391 440.6264V492.4525H1171.1852V440.6264ZM1180.8119 440.6264V492.4525H1186.6028L1208.8967 451.7011V492.4525H1214.253V440.6264H1208.5347L1186.2409 481.3781V440.6264ZM1243.8576 460.9661V467.0461H1261.8085V447.8647C1259.058 445.1865 1256.235 443.1597 1253.2675 441.7846 1250.2998 440.4093 1247.2597 439.7579 1244.1472 439.7579 1240.0214 439.7579 1236.33 440.7712 1233.0726 442.8703 1229.8153 444.9694 1227.282 447.9369 1225.3275 451.9182 1223.4456 455.8992 1222.5048 460.749 1222.5048 466.3225 1222.5048 471.9682 1223.4456 476.8903 1225.4 481.0884 1227.282 485.2868 1229.8153 488.3267 1232.8554 490.3534 1235.9679 492.3079 1239.5872 493.3213 1243.8576 493.3213 1246.97 493.3213 1249.6482 492.7422 1252.0369 491.584 1254.3532 490.426 1256.235 488.7612 1257.7553 486.6619 1259.2752 484.5628 1260.4334 481.5952 1261.1571 477.9037L1256.0905 476.2389C1255.4391 479.2065 1254.5702 481.3781 1253.4846 482.8258 1252.4712 484.2734 1251.0961 485.4314 1249.431 486.2276 1247.694 487.0239 1245.812 487.4581 1243.713 487.4581 1240.6005 487.4581 1237.9224 486.7345 1235.6785 485.2142 1233.5068 483.6943 1231.6972 481.3781 1230.3222 478.2657 1228.9467 475.0807 1228.2953 471.2445 1228.2953 466.6842 1228.2953 459.7356 1229.743 454.5238 1232.6383 451.122 1235.5336 447.6475 1239.2974 445.9105 1244.0025 445.9105 1246.174 445.9105 1248.4902 446.417 1250.8064 447.5027 1253.1226 448.5886 1254.9323 449.8191 1256.3076 451.2668V460.9661Z"/>
<path transform="matrix(1,0,0,-1,0,1701)" d="M428.5803 957.496C434.3159 943.2706 439.704 930.6479 444.5708 919.6282 450.6542 906.6047 455.1732 895.585 458.6496 886.9697 461.9517 878.3544 465.7757 869.7387 470.2949 861.3238 481.9402 883.5636 495.4975 915.6209 510.9667 957.496H544.6862C545.9026 957.2956 546.4242 956.6946 546.4242 955.6929 546.4242 954.6911 545.7291 954.0899 544.3384 953.8894 538.4288 953.2885 534.4311 951.8859 532.3453 949.682 530.4336 947.478 529.2167 943.8715 528.6954 938.6623 528.1741 933.6532 527.8263 924.0361 527.3048 910.0108 526.7835 895.9859 526.6097 884.3649 526.6097 874.9483 526.6097 857.1161 526.7835 846.4972 526.9575 843.692 527.1313 840.6867 528.1741 838.2824 529.9121 836.4793 531.4765 834.6759 534.9526 833.4737 539.8194 832.6723 541.2098 832.4719 541.9049 831.871 541.9049 830.8692 541.9049 829.8675 541.0361 829.2662 539.2979 829.2662L506.2737 829.4666H497.757C495.8453 829.4666 494.8024 830.0676 494.8024 831.0696 494.8024 831.871 495.4975 832.4719 496.7141 832.6723 501.5809 833.4737 504.7095 834.4757 506.2737 835.6776 507.6643 837.0802 508.881 839.2842 509.7498 842.6903 510.4454 846.0964 510.7927 854.5116 510.7927 867.9356L512.3571 914.8195 513.2262 938.0614C513.2262 939.8645 513.0524 940.6658 512.5311 940.6658 511.8358 940.6658 511.3142 940.0649 510.7927 939.0631L494.1068 900.7946C483.3306 876.3506 476.7259 860.7226 474.2926 853.9104L469.078 839.0837C467.3401 834.6759 466.2972 832.0714 466.1232 831.6706 465.7757 831.2698 465.2544 831.0696 464.9066 831.0696 464.2115 831.0696 463.5162 831.871 463.1686 833.6741 462.1258 837.6814 456.9114 850.5043 447.3516 872.1431 442.4848 884.3649 436.5754 898.3902 429.6229 914.0182 422.6706 929.6461 419.0204 937.8609 418.3251 938.4619 417.8038 939.2632 417.4563 939.4637 417.1085 939.4637 416.5872 939.4637 416.2394 938.6623 416.2394 937.0593L415.3703 877.7531 415.0227 858.3182C415.0227 847.8998 416.2394 841.0876 418.6729 837.8819 421.1062 834.6759 424.7561 833.0732 429.2753 833.0732 432.2302 833.0732 433.6206 832.4719 433.6206 830.8692 433.6206 829.8675 432.9252 829.2662 431.5351 829.2662L429.7966 829.4666 424.2348 829.2662 412.2417 829.4666C407.0276 829.4666 400.4226 829.0658 392.2534 828.4649 391.5581 829.0658 391.2106 829.4666 391.2106 830.0676 391.2106 831.2698 392.2534 832.0714 394.1654 832.0714 399.9013 832.2718 404.0728 834.4757 406.6798 838.4828 409.2868 842.6903 410.6775 851.9068 410.6775 866.1322V883.5636L411.7204 927.2418C411.7204 937.4601 410.5037 944.4728 407.8964 948.2794 405.2891 951.8859 401.4655 954.0899 396.4249 954.8915 394.1654 955.292 393.1226 955.8933 393.1226 956.895 393.1226 958.0972 393.9917 958.6981 395.5558 958.6981 396.4249 958.6981 397.4678 958.4977 398.5106 958.4977ZM648.6256 960.1007H652.7968C659.0543 945.2741 667.7447 919.6282 678.8687 883.5636 685.9947 860.322 690.8615 846.0964 693.4689 840.8871 696.2499 835.6776 700.4214 832.6723 706.3311 832.0714 708.2427 831.871 709.1118 831.0696 709.1118 829.8675 709.1118 828.8657 708.5903 828.2645 707.7212 828.2645L706.5045 828.4649C701.2905 829.0658 694.6855 829.4666 686.6904 829.4666 674.3494 829.4666 666.3543 829.2662 662.8779 828.8657 661.14 828.8657 660.2709 829.4666 660.2709 830.6688 660.2709 831.4702 660.966 832.0714 662.1829 832.2718 667.0494 832.8728 670.3517 833.6741 672.2637 835.0767 674.0019 836.4793 674.871 838.4828 674.871 841.4881 674.871 844.2933 673.3066 851.3059 669.8305 862.526L664.7899 879.3561C661.8351 879.3561 648.6256 879.1557 625.161 878.7549 619.2513 860.7226 616.2965 849.3021 616.2965 844.4937 616.2965 840.4863 617.8609 837.6814 620.6417 835.6776 623.5965 833.6741 626.5514 832.6723 629.3322 832.4719 631.4182 832.2718 632.461 831.6706 632.461 830.268 632.461 829.8675 632.1135 829.2662 631.4182 828.8657 622.3799 829.2662 616.9918 829.4666 615.0798 829.4666 605.5203 829.4666 599.2631 829.2662 595.9607 829.0658 594.0488 829.0658 593.1794 829.6671 593.1794 830.8692 593.1794 831.871 594.0488 832.6723 595.6129 832.8728 602.0439 833.8745 607.0844 838.8836 610.5609 848.0999 614.037 857.3165 619.4254 873.7461 626.7251 897.5886 633.3299 919.4278 640.6302 940.2653 648.6256 960.1007ZM645.323 938.6623C639.9349 926.4404 633.8514 908.4081 626.7251 884.7658 632.6348 885.1666 636.8063 885.3667 639.4133 885.3667L663.2257 884.7658C661.14 891.578 658.1852 900.5941 654.3612 911.8142 649.842 925.0379 646.7136 934.054 645.323 938.6623Z" fill="#ffffff"/>
<path transform="matrix(1,0,0,-1,0,1701)" stroke-width="1.4173" stroke-linecap="butt" stroke-miterlimit="22.925585" stroke-linejoin="miter" fill="none" stroke="#150e3e" d="M428.5803 957.496C434.3159 943.2706 439.704 930.6479 444.5708 919.6282 450.6542 906.6047 455.1732 895.585 458.6496 886.9697 461.9517 878.3544 465.7757 869.7387 470.2949 861.3238 481.9402 883.5636 495.4975 915.6209 510.9667 957.496H544.6862C545.9026 957.2956 546.4242 956.6946 546.4242 955.6929 546.4242 954.6911 545.7291 954.0899 544.3384 953.8894 538.4288 953.2885 534.4311 951.8859 532.3453 949.682 530.4336 947.478 529.2167 943.8715 528.6954 938.6623 528.1741 933.6532 527.8263 924.0361 527.3048 910.0108 526.7835 895.9859 526.6097 884.3649 526.6097 874.9483 526.6097 857.1161 526.7835 846.4972 526.9575 843.692 527.1313 840.6867 528.1741 838.2824 529.9121 836.4793 531.4765 834.6759 534.9526 833.4737 539.8194 832.6723 541.2098 832.4719 541.9049 831.871 541.9049 830.8692 541.9049 829.8675 541.0361 829.2662 539.2979 829.2662L506.2737 829.4666H497.757C495.8453 829.4666 494.8024 830.0676 494.8024 831.0696 494.8024 831.871 495.4975 832.4719 496.7141 832.6723 501.5809 833.4737 504.7095 834.4757 506.2737 835.6776 507.6643 837.0802 508.881 839.2842 509.7498 842.6903 510.4454 846.0964 510.7927 854.5116 510.7927 867.9356L512.3571 914.8195 513.2262 938.0614C513.2262 939.8645 513.0524 940.6658 512.5311 940.6658 511.8358 940.6658 511.3142 940.0649 510.7927 939.0631L494.1068 900.7946C483.3306 876.3506 476.7259 860.7226 474.2926 853.9104L469.078 839.0837C467.3401 834.6759 466.2972 832.0714 466.1232 831.6706 465.7757 831.2698 465.2544 831.0696 464.9066 831.0696 464.2115 831.0696 463.5162 831.871 463.1686 833.6741 462.1258 837.6814 456.9114 850.5043 447.3516 872.1431 442.4848 884.3649 436.5754 898.3902 429.6229 914.0182 422.6706 929.6461 419.0204 937.8609 418.3251 938.4619 417.8038 939.2632 417.4563 939.4637 417.1085 939.4637 416.5872 939.4637 416.2394 938.6623 416.2394 937.0593L415.3703 877.7531 415.0227 858.3182C415.0227 847.8998 416.2394 841.0876 418.6729 837.8819 421.1062 834.6759 424.7561 833.0732 429.2753 833.0732 432.2302 833.0732 433.6206 832.4719 433.6206 830.8692 433.6206 829.8675 432.9252 829.2662 431.5351 829.2662L429.7966 829.4666 424.2348 829.2662 412.2417 829.4666C407.0276 829.4666 400.4226 829.0658 392.2534 828.4649 391.5581 829.0658 391.2106 829.4666 391.2106 830.0676 391.2106 831.2698 392.2534 832.0714 394.1654 832.0714 399.9013 832.2718 404.0728 834.4757 406.6798 838.4828 409.2868 842.6903 410.6775 851.9068 410.6775 866.1322V883.5636L411.7204 927.2418C411.7204 937.4601 410.5037 944.4728 407.8964 948.2794 405.2891 951.8859 401.4655 954.0899 396.4249 954.8915 394.1654 955.292 393.1226 955.8933 393.1226 956.895 393.1226 958.0972 393.9917 958.6981 395.5558 958.6981 396.4249 958.6981 397.4678 958.4977 398.5106 958.4977ZM648.6256 960.1007H652.7968C659.0543 945.2741 667.7447 919.6282 678.8687 883.5636 685.9947 860.322 690.8615 846.0964 693.4689 840.8871 696.2499 835.6776 700.4214 832.6723 706.3311 832.0714 708.2427 831.871 709.1118 831.0696 709.1118 829.8675 709.1118 828.8657 708.5903 828.2645 707.7212 828.2645L706.5045 828.4649C701.2905 829.0658 694.6855 829.4666 686.6904 829.4666 674.3494 829.4666 666.3543 829.2662 662.8779 828.8657 661.14 828.8657 660.2709 829.4666 660.2709 830.6688 660.2709 831.4702 660.966 832.0714 662.1829 832.2718 667.0494 832.8728 670.3517 833.6741 672.2637 835.0767 674.0019 836.4793 674.871 838.4828 674.871 841.4881 674.871 844.2933 673.3066 851.3059 669.8305 862.526L664.7899 879.3561C661.8351 879.3561 648.6256 879.1557 625.161 878.7549 619.2513 860.7226 616.2965 849.3021 616.2965 844.4937 616.2965 840.4863 617.8609 837.6814 620.6417 835.6776 623.5965 833.6741 626.5514 832.6723 629.3322 832.4719 631.4182 832.2718 632.461 831.6706 632.461 830.268 632.461 829.8675 632.1135 829.2662 631.4182 828.8657 622.3799 829.2662 616.9918 829.4666 615.0798 829.4666 605.5203 829.4666 599.2631 829.2662 595.9607 829.0658 594.0488 829.0658 593.1794 829.6671 593.1794 830.8692 593.1794 831.871 594.0488 832.6723 595.6129 832.8728 602.0439 833.8745 607.0844 838.8836 610.5609 848.0999 614.037 857.3165 619.4254 873.7461 626.7251 897.5886 633.3299 919.4278 640.6302 940.2653 648.6256 960.1007ZM645.323 938.6623C639.9349 926.4404 633.8514 908.4081 626.7251 884.7658 632.6348 885.1666 636.8063 885.3667 639.4133 885.3667L663.2257 884.7658C661.14 891.578 658.1852 900.5941 654.3612 911.8142 649.842 925.0379 646.7136 934.054 645.323 938.6623Z"/>
<path transform="matrix(1,0,0,-1,0,1701)" d="M767.4551 958.4977 782.924 958.0972 806.7365 958.4977C809.5173 958.4977 810.9077 957.8968 810.9077 956.4942 810.9077 955.4924 810.2126 954.8915 808.6484 954.6911 802.391 953.8894 798.3933 951.0846 796.8291 946.8771 795.4384 942.6694 794.5696 926.6409 794.5696 899.1916 794.5696 889.1736 794.7434 877.7531 795.2647 865.1305 795.7862 852.5081 796.3075 844.8942 796.8291 842.2897 797.3504 839.8854 798.3933 837.8819 799.9577 836.2789 801.5219 834.6759 804.4767 833.6741 808.8222 833.0732 810.2126 832.8728 810.9077 832.0714 810.9077 831.0696 810.9077 829.8675 810.2126 829.2662 808.9957 829.2662L787.7908 829.4666 769.8881 829.2662C767.9764 829.2662 766.9335 829.8675 766.9335 831.2698 766.9335 832.6723 767.8026 833.2736 769.3668 833.2736 774.5814 833.4737 777.7097 835.4775 778.5791 839.2842 779.4479 843.2915 779.9692 855.7138 779.9692 876.7514 779.9692 897.188 779.7954 913.6174 779.4479 926.24 779.2741 938.6623 778.2313 946.4763 776.8406 949.2814 775.2764 952.0863 772.3216 953.8894 768.1501 954.4907 766.586 954.8915 765.7169 955.4924 765.7169 956.6946 765.7169 957.8968 766.4119 958.4977 767.4551 958.4977ZM931.7069 950.6837C933.2711 952.2867 934.314 954.2903 934.8355 956.0937 935.3568 957.6964 935.8784 958.4977 936.7475 958.4977 937.2688 958.4977 937.7904 958.0972 938.3117 957.496 938.6592 955.0916 939.1805 950.4836 940.0496 943.2706L941.9615 924.8374C941.9615 923.6353 941.4403 923.0343 940.0496 923.0343 939.3545 923.0343 938.8332 923.6353 938.3117 925.0379 935.3568 933.4531 930.8378 940.6658 924.9282 946.2759 919.0185 951.8859 912.5875 954.6911 905.6353 954.6911 898.6827 954.6911 893.4681 952.2867 889.992 947.6785 886.5159 942.8698 884.7777 937.8609 884.7777 932.4513 884.7777 926.0396 886.6896 921.0308 890.5136 917.6247 894.3372 914.0182 902.1589 910.2112 913.9779 905.8034 922.6687 902.5977 929.2734 899.5924 933.6186 896.7872 937.9641 893.7819 941.614 889.7746 944.5689 884.3649 947.5237 879.1557 948.9141 873.3453 948.9141 867.3344 948.9141 857.1161 945.2642 847.8998 937.7904 839.685 930.49 831.4702 921.4517 827.4631 910.6756 827.4631 900.942 827.4631 891.3824 830.8692 881.6491 837.8819 879.5633 836.0785 878.3467 833.8745 877.8251 831.4702 877.3038 829.2662 876.6085 828.2645 875.5656 828.2645 874.6965 828.2645 874.0015 829.6671 873.6537 832.2718 873.1324 835.0767 872.2633 847.6994 871.0466 870.34 871.2204 871.1413 871.9157 871.5421 872.7846 871.5421 873.6537 871.5421 874.349 870.7405 874.8703 869.3382 883.561 844.0929 895.7279 831.4702 911.3709 831.4702 919.0185 831.4702 925.1019 834.2753 929.4471 839.4846 933.7927 844.8942 936.0519 851.1055 936.0519 858.1181 936.0519 862.9265 934.8355 867.3344 932.5757 871.3417 930.1425 875.3488 927.0139 878.7549 923.1902 881.1592 919.3663 883.5636 913.1091 886.3685 904.7662 889.5745 893.9897 893.3811 886.6896 897.188 882.8657 900.7946 879.042 904.4008 876.261 908.4081 874.5228 912.816 872.6108 917.2239 871.7417 921.6317 871.7417 925.8392 871.7417 934.4548 875.2181 942.0684 881.9969 948.8806 888.7754 955.4924 897.2921 958.8986 907.1994 958.8986 910.8493 958.8986 914.847 958.2976 918.8447 956.895 923.0162 955.4924 927.3614 953.4889 931.7069 950.6837ZM1005.7504 894.3829C1005.7504 903.1989 1008.0099 912.816 1012.703 923.4351 1017.3957 933.8536 1024.1746 942.6694 1033.0387 949.4816 1041.9032 956.2938 1051.9843 959.6999 1063.2821 959.6999 1078.925 959.6999 1091.787 953.2885 1102.0422 940.2653 1112.2968 927.4422 1117.3374 912.6156 1117.3374 896.1863 1117.3374 878.5545 1111.7755 862.7261 1100.304 848.7011 1089.0062 834.6759 1075.449 827.6635 1059.632 827.6635 1044.3368 827.6635 1031.6486 833.8745 1021.2199 846.0964 1010.9648 858.3182 1005.7504 874.347 1005.7504 894.3829ZM1024.522 897.5886C1024.522 886.7693 1025.9127 875.95 1028.8676 864.7299 1031.6486 853.5098 1036.1676 845.295 1042.077 840.2859 1048.1604 835.2771 1054.7654 832.6723 1061.7177 832.6723 1072.842 832.6723 1081.7062 838.8836 1088.4849 851.506 1095.2634 863.9283 1098.5658 878.5545 1098.5658 894.9841 1098.5658 911.0129 1095.0897 925.0379 1088.3109 937.0593 1081.3587 949.081 1072.4942 955.0916 1061.3701 955.0916 1053.0272 955.0916 1046.0747 951.8859 1040.5128 945.4745 1034.9507 939.0631 1030.9533 931.2491 1028.346 922.4331 1025.7389 913.4169 1024.522 905.2024 1024.522 897.5886ZM1199.3766 956.895C1202.8527 951.6855 1208.7625 943.471 1217.1054 932.2509L1244.3936 895.9859 1270.4655 861.1234C1270.9868 872.9444 1271.3346 888.3723 1271.3346 907.206 1271.3346 921.2309 1271.1607 930.6479 1270.639 935.4566 1270.1177 940.2653 1268.206 944.2723 1264.9035 947.6785 1261.601 950.8842 1257.6033 952.4871 1252.7368 952.4871 1250.477 952.4871 1249.2604 953.0881 1249.2604 954.0899 1249.2604 954.8915 1249.4341 955.292 1249.9557 955.4924 1250.477 955.8933 1254.3009 956.0937 1261.4273 956.4942 1268.5534 956.6946 1274.4629 956.895 1279.3297 956.895H1290.8013 1292.7133C1294.4514 956.895 1295.3206 956.2938 1295.3206 955.0916 1295.3206 954.0899 1294.6253 953.4889 1293.0608 953.2885 1287.3251 952.6876 1283.1537 950.8842 1280.7201 948.0793 1278.2871 945.4745 1276.7227 941.4675 1276.201 936.4584 1275.6796 931.4493 1275.5059 914.2186 1275.5059 885.1666L1274.6367 833.4737C1274.6367 830.8692 1274.1154 829.4666 1273.0725 829.4666 1272.725 829.4666 1272.3775 829.6671 1271.856 829.8675 1271.3346 830.0676 1268.9011 833.4737 1264.2083 839.685 1259.6893 846.0964 1253.9531 853.71 1247.3484 862.526 1240.57 871.1413 1235.3554 878.3544 1231.5317 883.764 1223.015 895.585 1217.8003 902.9985 1215.5411 905.603 1207.3717 915.6209 1202.5053 922.233 1200.941 925.0379 1200.0719 927.0414 1199.2025 928.0431 1198.3334 928.0431 1197.8121 928.0431 1197.4646 926.6409 1197.4646 924.2365L1197.6384 909.0091C1197.6384 889.7746 1198.1599 874.347 1199.029 862.7261 1199.898 851.3059 1200.941 844.4937 1201.8098 842.4899 1202.8527 840.4863 1204.591 838.4828 1207.0242 836.4793 1209.4577 834.4757 1212.0647 833.4737 1214.8455 833.4737 1218.496 833.4737 1220.4077 832.6723 1220.4077 831.0696 1220.4077 830.0676 1219.3648 829.2662 1217.279 829.2662L1176.6073 829.4666C1174.6953 829.4666 1173.6524 830.0676 1173.6524 831.0696 1173.6524 832.4719 1174.5215 833.0732 1176.4335 833.0732 1183.386 833.0732 1188.0789 834.8763 1190.3383 838.4828 1192.5978 842.0893 1193.8145 849.5025 1193.8145 861.1234L1193.1194 895.585C1193.1194 915.8213 1192.424 927.843 1191.5549 931.4493 1190.5121 935.0558 1188.4266 939.4637 1185.124 944.4728 1181.8217 949.682 1177.9977 952.6876 1173.8262 953.2885 1171.9142 953.4889 1170.8717 954.2903 1170.8717 955.0916 1170.8717 956.4942 1172.088 957.0954 1174.5215 957.0954Z" fill="#ffffff"/>
<path transform="matrix(1,0,0,-1,0,1701)" stroke-width="1.4173" stroke-linecap="butt" stroke-miterlimit="22.925585" stroke-linejoin="miter" fill="none" stroke="#150e3e" d="M767.4551 958.4977 782.924 958.0972 806.7365 958.4977C809.5173 958.4977 810.9077 957.8968 810.9077 956.4942 810.9077 955.4924 810.2126 954.8915 808.6484 954.6911 802.391 953.8894 798.3933 951.0846 796.8291 946.8771 795.4384 942.6694 794.5696 926.6409 794.5696 899.1916 794.5696 889.1736 794.7434 877.7531 795.2647 865.1305 795.7862 852.5081 796.3075 844.8942 796.8291 842.2897 797.3504 839.8854 798.3933 837.8819 799.9577 836.2789 801.5219 834.6759 804.4767 833.6741 808.8222 833.0732 810.2126 832.8728 810.9077 832.0714 810.9077 831.0696 810.9077 829.8675 810.2126 829.2662 808.9957 829.2662L787.7908 829.4666 769.8881 829.2662C767.9764 829.2662 766.9335 829.8675 766.9335 831.2698 766.9335 832.6723 767.8026 833.2736 769.3668 833.2736 774.5814 833.4737 777.7097 835.4775 778.5791 839.2842 779.4479 843.2915 779.9692 855.7138 779.9692 876.7514 779.9692 897.188 779.7954 913.6174 779.4479 926.24 779.2741 938.6623 778.2313 946.4763 776.8406 949.2814 775.2764 952.0863 772.3216 953.8894 768.1501 954.4907 766.586 954.8915 765.7169 955.4924 765.7169 956.6946 765.7169 957.8968 766.4119 958.4977 767.4551 958.4977ZM931.7069 950.6837C933.2711 952.2867 934.314 954.2903 934.8355 956.0937 935.3568 957.6964 935.8784 958.4977 936.7475 958.4977 937.2688 958.4977 937.7904 958.0972 938.3117 957.496 938.6592 955.0916 939.1805 950.4836 940.0496 943.2706L941.9615 924.8374C941.9615 923.6353 941.4403 923.0343 940.0496 923.0343 939.3545 923.0343 938.8332 923.6353 938.3117 925.0379 935.3568 933.4531 930.8378 940.6658 924.9282 946.2759 919.0185 951.8859 912.5875 954.6911 905.6353 954.6911 898.6827 954.6911 893.4681 952.2867 889.992 947.6785 886.5159 942.8698 884.7777 937.8609 884.7777 932.4513 884.7777 926.0396 886.6896 921.0308 890.5136 917.6247 894.3372 914.0182 902.1589 910.2112 913.9779 905.8034 922.6687 902.5977 929.2734 899.5924 933.6186 896.7872 937.9641 893.7819 941.614 889.7746 944.5689 884.3649 947.5237 879.1557 948.9141 873.3453 948.9141 867.3344 948.9141 857.1161 945.2642 847.8998 937.7904 839.685 930.49 831.4702 921.4517 827.4631 910.6756 827.4631 900.942 827.4631 891.3824 830.8692 881.6491 837.8819 879.5633 836.0785 878.3467 833.8745 877.8251 831.4702 877.3038 829.2662 876.6085 828.2645 875.5656 828.2645 874.6965 828.2645 874.0015 829.6671 873.6537 832.2718 873.1324 835.0767 872.2633 847.6994 871.0466 870.34 871.2204 871.1413 871.9157 871.5421 872.7846 871.5421 873.6537 871.5421 874.349 870.7405 874.8703 869.3382 883.561 844.0929 895.7279 831.4702 911.3709 831.4702 919.0185 831.4702 925.1019 834.2753 929.4471 839.4846 933.7927 844.8942 936.0519 851.1055 936.0519 858.1181 936.0519 862.9265 934.8355 867.3344 932.5757 871.3417 930.1425 875.3488 927.0139 878.7549 923.1902 881.1592 919.3663 883.5636 913.1091 886.3685 904.7662 889.5745 893.9897 893.3811 886.6896 897.188 882.8657 900.7946 879.042 904.4008 876.261 908.4081 874.5228 912.816 872.6108 917.2239 871.7417 921.6317 871.7417 925.8392 871.7417 934.4548 875.2181 942.0684 881.9969 948.8806 888.7754 955.4924 897.2921 958.8986 907.1994 958.8986 910.8493 958.8986 914.847 958.2976 918.8447 956.895 923.0162 955.4924 927.3614 953.4889 931.7069 950.6837ZM1005.7504 894.3829C1005.7504 903.1989 1008.0099 912.816 1012.703 923.4351 1017.3957 933.8536 1024.1746 942.6694 1033.0387 949.4816 1041.9032 956.2938 1051.9843 959.6999 1063.2821 959.6999 1078.925 959.6999 1091.787 953.2885 1102.0422 940.2653 1112.2968 927.4422 1117.3374 912.6156 1117.3374 896.1863 1117.3374 878.5545 1111.7755 862.7261 1100.304 848.7011 1089.0062 834.6759 1075.449 827.6635 1059.632 827.6635 1044.3368 827.6635 1031.6486 833.8745 1021.2199 846.0964 1010.9648 858.3182 1005.7504 874.347 1005.7504 894.3829ZM1024.522 897.5886C1024.522 886.7693 1025.9127 875.95 1028.8676 864.7299 1031.6486 853.5098 1036.1676 845.295 1042.077 840.2859 1048.1604 835.2771 1054.7654 832.6723 1061.7177 832.6723 1072.842 832.6723 1081.7062 838.8836 1088.4849 851.506 1095.2634 863.9283 1098.5658 878.5545 1098.5658 894.9841 1098.5658 911.0129 1095.0897 925.0379 1088.3109 937.0593 1081.3587 949.081 1072.4942 955.0916 1061.3701 955.0916 1053.0272 955.0916 1046.0747 951.8859 1040.5128 945.4745 1034.9507 939.0631 1030.9533 931.2491 1028.346 922.4331 1025.7389 913.4169 1024.522 905.2024 1024.522 897.5886ZM1199.3766 956.895C1202.8527 951.6855 1208.7625 943.471 1217.1054 932.2509L1244.3936 895.9859 1270.4655 861.1234C1270.9868 872.9444 1271.3346 888.3723 1271.3346 907.206 1271.3346 921.2309 1271.1607 930.6479 1270.639 935.4566 1270.1177 940.2653 1268.206 944.2723 1264.9035 947.6785 1261.601 950.8842 1257.6033 952.4871 1252.7368 952.4871 1250.477 952.4871 1249.2604 953.0881 1249.2604 954.0899 1249.2604 954.8915 1249.4341 955.292 1249.9557 955.4924 1250.477 955.8933 1254.3009 956.0937 1261.4273 956.4942 1268.5534 956.6946 1274.4629 956.895 1279.3297 956.895H1290.8013 1292.7133C1294.4514 956.895 1295.3206 956.2938 1295.3206 955.0916 1295.3206 954.0899 1294.6253 953.4889 1293.0608 953.2885 1287.3251 952.6876 1283.1537 950.8842 1280.7201 948.0793 1278.2871 945.4745 1276.7227 941.4675 1276.201 936.4584 1275.6796 931.4493 1275.5059 914.2186 1275.5059 885.1666L1274.6367 833.4737C1274.6367 830.8692 1274.1154 829.4666 1273.0725 829.4666 1272.725 829.4666 1272.3775 829.6671 1271.856 829.8675 1271.3346 830.0676 1268.9011 833.4737 1264.2083 839.685 1259.6893 846.0964 1253.9531 853.71 1247.3484 862.526 1240.57 871.1413 1235.3554 878.3544 1231.5317 883.764 1223.015 895.585 1217.8003 902.9985 1215.5411 905.603 1207.3717 915.6209 1202.5053 922.233 1200.941 925.0379 1200.0719 927.0414 1199.2025 928.0431 1198.3334 928.0431 1197.8121 928.0431 1197.4646 926.6409 1197.4646 924.2365L1197.6384 909.0091C1197.6384 889.7746 1198.1599 874.347 1199.029 862.7261 1199.898 851.3059 1200.941 844.4937 1201.8098 842.4899 1202.8527 840.4863 1204.591 838.4828 1207.0242 836.4793 1209.4577 834.4757 1212.0647 833.4737 1214.8455 833.4737 1218.496 833.4737 1220.4077 832.6723 1220.4077 831.0696 1220.4077 830.0676 1219.3648 829.2662 1217.279 829.2662L1176.6073 829.4666C1174.6953 829.4666 1173.6524 830.0676 1173.6524 831.0696 1173.6524 832.4719 1174.5215 833.0732 1176.4335 833.0732 1183.386 833.0732 1188.0789 834.8763 1190.3383 838.4828 1192.5978 842.0893 1193.8145 849.5025 1193.8145 861.1234L1193.1194 895.585C1193.1194 915.8213 1192.424 927.843 1191.5549 931.4493 1190.5121 935.0558 1188.4266 939.4637 1185.124 944.4728 1181.8217 949.682 1177.9977 952.6876 1173.8262 953.2885 1171.9142 953.4889 1170.8717 954.2903 1170.8717 955.0916 1170.8717 956.4942 1172.088 957.0954 1174.5215 957.0954Z"/>
<path transform="matrix(1,0,0,-1,0,1701)" d="M560.8729 699.0942C566.7644 696.0759 570.9538 693.0575 573.1795 689.7373 575.5363 686.5679 577.2382 681.5877 578.2856 674.7962 579.7259 666.0431 581.6897 660.0061 584.1771 656.9878 586.7955 653.9695 590.0686 652.3092 594.258 652.1584 595.4363 652.0076 595.9599 651.5546 595.9599 650.8001 595.9599 649.8947 595.3054 649.442 593.996 649.442 582.0823 649.442 574.8817 649.8947 572.2631 650.8001 569.7757 651.7057 567.9428 656.6859 566.6335 665.892 565.4551 674.7962 564.277 681.2858 563.0987 685.3606 561.7894 689.4354 559.8255 692.6046 557.0762 694.7175 554.3266 696.9813 550.0063 698.0377 544.1151 698.0377 541.8893 698.0377 539.4016 697.7358 536.6523 697.2831 536.3906 694.114 536.2594 690.9446 536.2594 687.6244 536.2594 674.9473 536.3906 666.7977 536.6523 663.1756 537.0452 659.4026 537.9613 656.6859 539.4016 655.026 540.9729 653.3657 543.4603 652.4603 546.9953 652.3092 548.5663 652.3092 549.3518 651.8565 549.3518 651.102 549.3518 650.0455 548.4353 649.5928 546.4715 649.5928H514.9191C513.0865 649.5928 512.1697 650.0455 512.1697 651.102 512.1697 651.8565 512.9552 652.3092 514.3955 652.3092 517.5377 652.3092 519.8941 652.913 521.0725 653.9695 522.3818 655.1768 523.2983 656.837 524.0837 659.2516 524.7383 661.6664 525.1311 666.0431 525.1311 672.2306L525.0002 687.1717 525.1311 710.1113C525.1311 721.8831 524.8695 729.58 524.3457 733.3529 523.9528 737.1258 523.1673 739.6914 521.9892 740.8987 520.8109 742.2571 518.1922 743.3135 514.0029 744.0681 513.0865 744.2189 512.6936 744.5208 512.6936 745.2754 512.6936 746.03 513.61 746.4827 515.4429 746.4827L553.2795 747.3883C563.6225 747.3883 571.2157 745.1246 575.9291 740.446 580.6423 735.9185 582.9987 730.1835 582.9987 723.543 582.9987 719.3174 582.0823 715.5445 580.1185 711.9224 578.2856 708.4511 576.0598 706.0365 573.4414 704.3763 570.8231 702.8671 566.6335 701.0561 560.8729 699.0942ZM536.6523 700.9053C544.9003 701.0561 551.0537 701.8106 555.1123 702.8671 559.171 704.0747 562.5748 706.4892 565.4551 710.4132 568.3354 714.1861 569.7757 718.7136 569.7757 723.9957 569.7757 729.58 568.2047 734.4094 565.0625 738.4842 561.7894 742.559 556.6833 744.6716 549.7444 744.6716 545.9477 744.6716 541.6274 744.0681 537.0452 742.8609 536.5213 729.4289 536.2594 718.7136 536.2594 710.7151 536.2594 707.8476 536.3906 704.6782 536.6523 700.9053Z" fill="#ffffff"/>
<path transform="matrix(1,0,0,-1,0,1701)" stroke-width="1.4173" stroke-linecap="butt" stroke-miterlimit="22.925585" stroke-linejoin="miter" fill="none" stroke="#150e3e" d="M560.8729 699.0942C566.7644 696.0759 570.9538 693.0575 573.1795 689.7373 575.5363 686.5679 577.2382 681.5877 578.2856 674.7962 579.7259 666.0431 581.6897 660.0061 584.1771 656.9878 586.7955 653.9695 590.0686 652.3092 594.258 652.1584 595.4363 652.0076 595.9599 651.5546 595.9599 650.8001 595.9599 649.8947 595.3054 649.442 593.996 649.442 582.0823 649.442 574.8817 649.8947 572.2631 650.8001 569.7757 651.7057 567.9428 656.6859 566.6335 665.892 565.4551 674.7962 564.277 681.2858 563.0987 685.3606 561.7894 689.4354 559.8255 692.6046 557.0762 694.7175 554.3266 696.9813 550.0063 698.0377 544.1151 698.0377 541.8893 698.0377 539.4016 697.7358 536.6523 697.2831 536.3906 694.114 536.2594 690.9446 536.2594 687.6244 536.2594 674.9473 536.3906 666.7977 536.6523 663.1756 537.0452 659.4026 537.9613 656.6859 539.4016 655.026 540.9729 653.3657 543.4603 652.4603 546.9953 652.3092 548.5663 652.3092 549.3518 651.8565 549.3518 651.102 549.3518 650.0455 548.4353 649.5928 546.4715 649.5928H514.9191C513.0865 649.5928 512.1697 650.0455 512.1697 651.102 512.1697 651.8565 512.9552 652.3092 514.3955 652.3092 517.5377 652.3092 519.8941 652.913 521.0725 653.9695 522.3818 655.1768 523.2983 656.837 524.0837 659.2516 524.7383 661.6664 525.1311 666.0431 525.1311 672.2306L525.0002 687.1717 525.1311 710.1113C525.1311 721.8831 524.8695 729.58 524.3457 733.3529 523.9528 737.1258 523.1673 739.6914 521.9892 740.8987 520.8109 742.2571 518.1922 743.3135 514.0029 744.0681 513.0865 744.2189 512.6936 744.5208 512.6936 745.2754 512.6936 746.03 513.61 746.4827 515.4429 746.4827L553.2795 747.3883C563.6225 747.3883 571.2157 745.1246 575.9291 740.446 580.6423 735.9185 582.9987 730.1835 582.9987 723.543 582.9987 719.3174 582.0823 715.5445 580.1185 711.9224 578.2856 708.4511 576.0598 706.0365 573.4414 704.3763 570.8231 702.8671 566.6335 701.0561 560.8729 699.0942ZM536.6523 700.9053C544.9003 701.0561 551.0537 701.8106 555.1123 702.8671 559.171 704.0747 562.5748 706.4892 565.4551 710.4132 568.3354 714.1861 569.7757 718.7136 569.7757 723.9957 569.7757 729.58 568.2047 734.4094 565.0625 738.4842 561.7894 742.559 556.6833 744.6716 549.7444 744.6716 545.9477 744.6716 541.6274 744.0681 537.0452 742.8609 536.5213 729.4289 536.2594 718.7136 536.2594 710.7151 536.2594 707.8476 536.3906 704.6782 536.6523 700.9053Z"/>
<path transform="matrix(1,0,0,-1,0,1701)" d="M607.394 684.0023C607.2633 681.5877 607.1321 679.4748 607.1321 678.1164 607.1321 671.1741 608.9652 665.2885 612.5 660.4588 616.0348 655.6294 620.4864 653.2149 625.7231 653.2149 630.8291 653.2149 635.6733 655.6294 639.9938 660.308 641.3029 661.6664 642.0883 662.2699 642.4812 662.2699 643.136 662.2699 643.5286 661.6664 643.5286 660.308 641.9577 656.9878 639.2081 653.9695 635.2804 651.7057 631.353 649.2909 626.9014 648.0836 622.1883 648.0836 615.1184 648.0836 609.0959 651.102 604.1211 656.837 599.277 662.7229 596.7893 670.2687 596.7893 679.1729 596.7893 688.8317 599.5386 696.8305 604.9066 703.3198 610.2743 709.8094 616.0348 712.9789 622.1883 712.9789 627.9489 712.9789 633.0549 710.4132 637.7681 705.4328 642.3503 700.3015 644.7067 694.4156 644.7067 687.6244 644.7067 686.5679 644.576 685.8133 644.3141 685.3606 644.0522 684.9079 642.3503 684.606 639.47 684.606ZM607.394 687.7752C612.8926 687.4736 618.3916 687.3225 623.4973 687.3225L626.9014 687.6244C629.5198 687.6244 631.4837 688.2282 632.793 689.2843 634.2333 690.3408 634.8878 692.303 634.8878 694.8686 634.8878 699.0942 633.7094 702.7163 631.2217 705.7346 628.7346 708.9041 625.854 710.4132 622.5809 710.4132 619.439 710.4132 616.4277 708.6022 613.2855 705.1309 610.2743 701.509 608.3104 695.774 607.394 687.7752ZM685.2929 659.1008C683.1981 655.4786 680.7107 652.913 677.8301 651.102 674.9498 649.442 671.6769 648.5363 668.0112 648.5363 663.6906 648.5363 660.4177 649.8947 657.93 652.4603 655.4426 655.1768 654.2643 658.6481 654.2643 663.0245 654.2643 666.1939 655.0498 669.2122 656.49 672.0797 657.93 674.9473 659.6323 676.9091 661.4649 678.1164 663.4287 679.324 666.7021 680.8331 671.415 682.795 678.2233 685.3606 682.2816 687.4736 683.7219 689.2843 685.031 690.9446 685.6858 693.2083 685.6858 695.9248 685.6858 700.3015 684.7693 703.7728 683.0674 706.1873 681.2342 708.6022 678.7468 709.8094 675.4737 709.8094 672.8553 709.8094 670.7605 709.2057 669.4512 707.6965 668.1421 706.3384 667.0947 703.4709 666.309 699.3961 665.5238 694.8686 663.8219 692.6046 661.3342 692.6046 660.2868 692.6046 659.3703 693.2083 658.192 694.2648 657.0136 695.3213 656.49 696.9813 656.49 698.9434 656.49 702.7163 658.3229 705.8854 661.858 708.6022 665.3928 711.3186 670.2369 712.677 676.3901 712.677 681.2342 712.677 685.1619 711.9224 688.0422 710.2621 691.0534 708.753 692.8863 706.9419 693.5409 704.8293 694.3266 702.7163 694.7192 698.7923 694.7192 692.9065L694.3266 673.4381C694.3266 666.0431 694.7192 660.6099 695.505 657.5916 696.2905 654.4222 697.8614 652.7622 699.9562 652.7622 700.4798 652.7622 701.0036 652.7622 701.7891 652.913L702.9675 653.0638C703.8839 653.0638 704.4075 652.6111 704.4075 651.8565 704.4075 649.8947 700.2179 648.989 691.7083 648.989 689.2206 648.989 687.5186 649.5928 686.7329 650.9511 685.8164 652.3092 685.4238 654.8749 685.2929 659.1008ZM685.2929 687.7752C683.9838 685.8133 681.1036 683.5496 676.652 680.8331 672.2008 678.1164 668.9276 675.5508 666.9638 673.1362 665.1309 670.7214 664.0835 667.8539 664.0835 664.3828 664.0835 661.2134 664.869 658.6481 666.4402 656.5351 668.0112 654.2714 670.106 653.2149 672.4627 653.2149 674.8191 653.2149 677.1756 654.1203 679.4014 655.7805 681.4962 657.5916 683.0674 659.8553 684.1145 662.5718 685.1619 665.2885 685.6858 669.2122 685.6858 674.4943 685.6858 678.5691 685.5545 682.9458 685.2929 687.7752Z" fill="#ffffff"/>
<path transform="matrix(1,0,0,-1,0,1701)" stroke-width="1.4173" stroke-linecap="butt" stroke-miterlimit="22.925585" stroke-linejoin="miter" fill="none" stroke="#150e3e" d="M607.394 684.0023C607.2633 681.5877 607.1321 679.4748 607.1321 678.1164 607.1321 671.1741 608.9652 665.2885 612.5 660.4588 616.0348 655.6294 620.4864 653.2149 625.7231 653.2149 630.8291 653.2149 635.6733 655.6294 639.9938 660.308 641.3029 661.6664 642.0883 662.2699 642.4812 662.2699 643.136 662.2699 643.5286 661.6664 643.5286 660.308 641.9577 656.9878 639.2081 653.9695 635.2804 651.7057 631.353 649.2909 626.9014 648.0836 622.1883 648.0836 615.1184 648.0836 609.0959 651.102 604.1211 656.837 599.277 662.7229 596.7893 670.2687 596.7893 679.1729 596.7893 688.8317 599.5386 696.8305 604.9066 703.3198 610.2743 709.8094 616.0348 712.9789 622.1883 712.9789 627.9489 712.9789 633.0549 710.4132 637.7681 705.4328 642.3503 700.3015 644.7067 694.4156 644.7067 687.6244 644.7067 686.5679 644.576 685.8133 644.3141 685.3606 644.0522 684.9079 642.3503 684.606 639.47 684.606ZM607.394 687.7752C612.8926 687.4736 618.3916 687.3225 623.4973 687.3225L626.9014 687.6244C629.5198 687.6244 631.4837 688.2282 632.793 689.2843 634.2333 690.3408 634.8878 692.303 634.8878 694.8686 634.8878 699.0942 633.7094 702.7163 631.2217 705.7346 628.7346 708.9041 625.854 710.4132 622.5809 710.4132 619.439 710.4132 616.4277 708.6022 613.2855 705.1309 610.2743 701.509 608.3104 695.774 607.394 687.7752ZM685.2929 659.1008C683.1981 655.4786 680.7107 652.913 677.8301 651.102 674.9498 649.442 671.6769 648.5363 668.0112 648.5363 663.6906 648.5363 660.4177 649.8947 657.93 652.4603 655.4426 655.1768 654.2643 658.6481 654.2643 663.0245 654.2643 666.1939 655.0498 669.2122 656.49 672.0797 657.93 674.9473 659.6323 676.9091 661.4649 678.1164 663.4287 679.324 666.7021 680.8331 671.415 682.795 678.2233 685.3606 682.2816 687.4736 683.7219 689.2843 685.031 690.9446 685.6858 693.2083 685.6858 695.9248 685.6858 700.3015 684.7693 703.7728 683.0674 706.1873 681.2342 708.6022 678.7468 709.8094 675.4737 709.8094 672.8553 709.8094 670.7605 709.2057 669.4512 707.6965 668.1421 706.3384 667.0947 703.4709 666.309 699.3961 665.5238 694.8686 663.8219 692.6046 661.3342 692.6046 660.2868 692.6046 659.3703 693.2083 658.192 694.2648 657.0136 695.3213 656.49 696.9813 656.49 698.9434 656.49 702.7163 658.3229 705.8854 661.858 708.6022 665.3928 711.3186 670.2369 712.677 676.3901 712.677 681.2342 712.677 685.1619 711.9224 688.0422 710.2621 691.0534 708.753 692.8863 706.9419 693.5409 704.8293 694.3266 702.7163 694.7192 698.7923 694.7192 692.9065L694.3266 673.4381C694.3266 666.0431 694.7192 660.6099 695.505 657.5916 696.2905 654.4222 697.8614 652.7622 699.9562 652.7622 700.4798 652.7622 701.0036 652.7622 701.7891 652.913L702.9675 653.0638C703.8839 653.0638 704.4075 652.6111 704.4075 651.8565 704.4075 649.8947 700.2179 648.989 691.7083 648.989 689.2206 648.989 687.5186 649.5928 686.7329 650.9511 685.8164 652.3092 685.4238 654.8749 685.2929 659.1008ZM685.2929 687.7752C683.9838 685.8133 681.1036 683.5496 676.652 680.8331 672.2008 678.1164 668.9276 675.5508 666.9638 673.1362 665.1309 670.7214 664.0835 667.8539 664.0835 664.3828 664.0835 661.2134 664.869 658.6481 666.4402 656.5351 668.0112 654.2714 670.106 653.2149 672.4627 653.2149 674.8191 653.2149 677.1756 654.1203 679.4014 655.7805 681.4962 657.5916 683.0674 659.8553 684.1145 662.5718 685.1619 665.2885 685.6858 669.2122 685.6858 674.4943 685.6858 678.5691 685.5545 682.9458 685.2929 687.7752Z"/>
<path transform="matrix(1,0,0,-1,0,1701)" d="M728.5842 750.5575C728.7148 744.37 728.7148 738.1823 728.8461 731.9945L728.7148 686.266 728.8461 663.9301C728.8461 659.8553 729.3696 656.6859 730.417 654.8749 731.4644 653.0638 733.6902 651.8565 737.094 651.5546 738.5343 651.4038 739.1889 650.9511 739.1889 650.0455 739.1889 649.1401 738.665 648.6874 737.4869 648.6874 737.225 648.6874 736.8324 648.8382 736.4392 648.8382 732.119 649.2909 726.8822 649.5928 720.8597 649.5928 717.063 649.5928 714.1827 649.2909 711.8263 648.8382 711.4331 648.8382 711.0405 648.8382 710.6477 648.8382 709.3386 648.8382 708.6841 649.2909 708.6841 650.1966 708.6841 651.102 709.2077 651.5546 710.386 651.5546 714.3134 651.5546 716.8011 652.913 717.9795 655.4786 719.1578 657.8932 719.8123 662.2699 719.8123 668.1557L719.6814 710.1113C719.5504 723.6941 719.4195 731.6926 719.1578 734.4094 718.8959 736.975 717.9795 739.2387 716.5392 741.0498 714.9682 742.7098 713.0044 743.917 710.2551 744.37 708.5529 744.6716 707.7674 745.2754 707.7674 746.03 707.7674 746.7846 708.4222 747.2373 709.8622 747.3883 717.5869 747.9918 723.4781 749.0483 727.4058 750.5575ZM880.8466 745.2754C882.1559 739.6914 883.3343 731.9945 884.5123 722.0339 884.3814 721.5812 884.1197 721.4304 883.8578 721.4304 883.5962 721.4304 883.203 721.5812 882.9414 722.0339 879.9301 727.467 877.1808 731.6926 874.4315 734.5602 871.8131 737.4277 869.0635 739.3895 866.3142 740.5968 863.6958 741.8044 858.9827 742.4079 852.4363 742.4079 846.1522 742.4079 841.3081 741.9552 837.6423 741.2006 837.2494 740.7479 837.1188 739.8422 837.1188 738.4842 837.1188 738.0312 837.1188 737.4277 836.9875 736.6731 836.5949 732.5983 836.333 722.0339 836.333 704.6782 836.333 703.9236 836.333 702.8671 836.4643 701.509 839.7371 701.358 841.9629 701.358 843.141 701.358 848.5089 701.358 852.4363 702.2636 854.7931 704.0747 857.2805 705.8854 859.3753 709.8094 861.0772 715.9972 861.4704 717.0537 861.863 717.5064 862.2556 717.5064 863.041 717.5064 863.4339 716.7518 863.4339 715.3934L863.1723 712.3751C862.9104 708.6022 862.7794 704.5274 862.7794 700.4526 862.7794 693.8121 862.9104 687.7752 863.041 682.4931 863.041 680.8331 862.6484 679.9275 861.863 679.9275 861.3391 679.9275 860.9465 680.5312 860.6846 681.7385 859.8991 687.4736 857.9353 691.6992 855.055 694.2648 852.3057 696.8305 846.0213 698.0377 836.5949 698.0377 836.4643 694.4156 836.333 688.6809 836.333 680.682 836.333 670.2687 836.7259 663.6283 837.2494 660.9118 837.9043 658.0443 839.4752 655.7805 841.9629 654.1203 844.3193 652.6111 848.378 651.7057 854.2695 651.7057 870.7657 651.7057 881.5011 658.3462 886.3452 671.476 886.8691 673.1362 887.5236 673.8908 888.0474 673.8908 888.8329 673.8908 889.0948 673.4381 889.0948 672.2306 889.0948 671.6271 888.9636 671.0233 888.8329 670.4195 888.571 669.3633 887.9165 665.892 886.8691 659.8553 886.7381 658.6481 885.9526 654.7241 884.5123 648.3855H857.6734C853.8766 648.3855 848.247 648.6874 840.7845 648.989 833.322 649.442 826.7757 649.5928 821.0151 649.5928 815.2546 649.5928 812.2433 649.7436 811.9814 650.0455 811.7195 650.3474 811.5888 650.4982 811.5888 650.8001 811.5888 651.8565 812.2433 652.3092 813.6833 652.3092 818.5277 652.3092 821.539 653.8184 823.11 656.6859 824.55 659.5534 825.3357 666.6466 825.3357 677.8145V692.9065L825.4664 707.093C825.4664 709.8094 825.3357 715.2426 825.0738 723.2411 824.8119 731.0891 824.55 735.6166 824.288 736.8239 824.0264 737.8804 823.3719 739.0877 822.3242 740.1441 821.2771 741.2006 818.7894 742.4079 815.1236 743.4643 813.9453 743.7662 813.4217 744.37 813.4217 745.1246 813.4217 746.03 814.2072 746.4827 815.6475 746.4827L828.7396 745.7281C833.322 745.4265 844.7119 745.2754 862.6484 745.2754 874.5622 745.2754 880.5847 745.2754 880.8466 745.2754Z" fill="#ffffff"/>
<path transform="matrix(1,0,0,-1,0,1701)" stroke-width="1.4173" stroke-linecap="butt" stroke-miterlimit="22.925585" stroke-linejoin="miter" fill="none" stroke="#150e3e" d="M728.5842 750.5575C728.7148 744.37 728.7148 738.1823 728.8461 731.9945L728.7148 686.266 728.8461 663.9301C728.8461 659.8553 729.3696 656.6859 730.417 654.8749 731.4644 653.0638 733.6902 651.8565 737.094 651.5546 738.5343 651.4038 739.1889 650.9511 739.1889 650.0455 739.1889 649.1401 738.665 648.6874 737.4869 648.6874 737.225 648.6874 736.8324 648.8382 736.4392 648.8382 732.119 649.2909 726.8822 649.5928 720.8597 649.5928 717.063 649.5928 714.1827 649.2909 711.8263 648.8382 711.4331 648.8382 711.0405 648.8382 710.6477 648.8382 709.3386 648.8382 708.6841 649.2909 708.6841 650.1966 708.6841 651.102 709.2077 651.5546 710.386 651.5546 714.3134 651.5546 716.8011 652.913 717.9795 655.4786 719.1578 657.8932 719.8123 662.2699 719.8123 668.1557L719.6814 710.1113C719.5504 723.6941 719.4195 731.6926 719.1578 734.4094 718.8959 736.975 717.9795 739.2387 716.5392 741.0498 714.9682 742.7098 713.0044 743.917 710.2551 744.37 708.5529 744.6716 707.7674 745.2754 707.7674 746.03 707.7674 746.7846 708.4222 747.2373 709.8622 747.3883 717.5869 747.9918 723.4781 749.0483 727.4058 750.5575ZM880.8466 745.2754C882.1559 739.6914 883.3343 731.9945 884.5123 722.0339 884.3814 721.5812 884.1197 721.4304 883.8578 721.4304 883.5962 721.4304 883.203 721.5812 882.9414 722.0339 879.9301 727.467 877.1808 731.6926 874.4315 734.5602 871.8131 737.4277 869.0635 739.3895 866.3142 740.5968 863.6958 741.8044 858.9827 742.4079 852.4363 742.4079 846.1522 742.4079 841.3081 741.9552 837.6423 741.2006 837.2494 740.7479 837.1188 739.8422 837.1188 738.4842 837.1188 738.0312 837.1188 737.4277 836.9875 736.6731 836.5949 732.5983 836.333 722.0339 836.333 704.6782 836.333 703.9236 836.333 702.8671 836.4643 701.509 839.7371 701.358 841.9629 701.358 843.141 701.358 848.5089 701.358 852.4363 702.2636 854.7931 704.0747 857.2805 705.8854 859.3753 709.8094 861.0772 715.9972 861.4704 717.0537 861.863 717.5064 862.2556 717.5064 863.041 717.5064 863.4339 716.7518 863.4339 715.3934L863.1723 712.3751C862.9104 708.6022 862.7794 704.5274 862.7794 700.4526 862.7794 693.8121 862.9104 687.7752 863.041 682.4931 863.041 680.8331 862.6484 679.9275 861.863 679.9275 861.3391 679.9275 860.9465 680.5312 860.6846 681.7385 859.8991 687.4736 857.9353 691.6992 855.055 694.2648 852.3057 696.8305 846.0213 698.0377 836.5949 698.0377 836.4643 694.4156 836.333 688.6809 836.333 680.682 836.333 670.2687 836.7259 663.6283 837.2494 660.9118 837.9043 658.0443 839.4752 655.7805 841.9629 654.1203 844.3193 652.6111 848.378 651.7057 854.2695 651.7057 870.7657 651.7057 881.5011 658.3462 886.3452 671.476 886.8691 673.1362 887.5236 673.8908 888.0474 673.8908 888.8329 673.8908 889.0948 673.4381 889.0948 672.2306 889.0948 671.6271 888.9636 671.0233 888.8329 670.4195 888.571 669.3633 887.9165 665.892 886.8691 659.8553 886.7381 658.6481 885.9526 654.7241 884.5123 648.3855H857.6734C853.8766 648.3855 848.247 648.6874 840.7845 648.989 833.322 649.442 826.7757 649.5928 821.0151 649.5928 815.2546 649.5928 812.2433 649.7436 811.9814 650.0455 811.7195 650.3474 811.5888 650.4982 811.5888 650.8001 811.5888 651.8565 812.2433 652.3092 813.6833 652.3092 818.5277 652.3092 821.539 653.8184 823.11 656.6859 824.55 659.5534 825.3357 666.6466 825.3357 677.8145V692.9065L825.4664 707.093C825.4664 709.8094 825.3357 715.2426 825.0738 723.2411 824.8119 731.0891 824.55 735.6166 824.288 736.8239 824.0264 737.8804 823.3719 739.0877 822.3242 740.1441 821.2771 741.2006 818.7894 742.4079 815.1236 743.4643 813.9453 743.7662 813.4217 744.37 813.4217 745.1246 813.4217 746.03 814.2072 746.4827 815.6475 746.4827L828.7396 745.7281C833.322 745.4265 844.7119 745.2754 862.6484 745.2754 874.5622 745.2754 880.5847 745.2754 880.8466 745.2754Z"/>
<path transform="matrix(1,0,0,-1,0,1701)" d="M939.3248 669.0614C939.3248 663.3264 937.4919 658.497 933.8261 654.4222 930.1603 650.3474 925.8398 648.2344 920.8647 648.2344 917.8534 648.2344 914.3186 649.2909 910.129 651.5546 907.9033 652.7622 906.5942 653.3657 906.2014 653.3657 905.4159 653.3657 904.7611 652.913 904.2375 651.7057 903.583 650.3474 902.9285 649.5928 902.274 649.5928 901.7501 649.5928 901.4882 650.3474 901.3572 651.7057 901.2263 653.0638 901.0956 656.384 901.0956 661.3645 901.0956 665.5901 900.9643 668.4576 900.8337 669.6649 900.8337 671.476 901.2263 672.3816 902.1427 672.3816 902.5356 672.3816 902.9285 671.9287 903.1901 671.0233 904.8923 665.4393 907.1181 660.6099 910.129 656.6859 913.1403 652.7622 916.6754 650.8001 920.7337 650.8001 923.614 650.8001 926.1017 651.8565 928.3272 653.8184 930.5529 655.9313 931.6003 658.6481 931.6003 662.1191 931.6003 667.5523 927.5417 672.2306 919.4244 676.4564 913.9258 679.324 910.129 681.4366 908.2962 682.795 906.4633 684.1534 904.8923 685.9641 903.8446 688.2282 902.7975 690.4919 902.274 692.9065 902.274 695.6232 902.274 700.6034 903.9759 704.8293 907.2488 708.3003 910.6529 711.7713 914.5806 713.4316 919.4244 713.4316 922.8285 713.4316 926.7562 712.2243 930.9458 709.6586 931.6003 709.2057 932.1242 709.0549 932.6477 709.0549 933.1713 709.0549 933.5642 709.5076 934.0877 710.2621 934.6116 711.1678 935.0045 711.4697 935.2664 711.4697 935.659 711.4697 935.9209 711.3186 936.1826 710.8659 936.3135 710.564 936.5754 708.3003 936.8371 704.3763 937.099 700.4526 937.23 697.1323 937.23 694.5667 937.23 692.9065 936.8371 692.1519 936.1826 692.1519 935.528 692.1519 935.0045 692.9065 934.6116 694.2648 934.2187 695.6232 933.3023 698.1888 931.6003 701.8106 929.8984 705.5838 927.9346 707.9984 925.9707 709.0549 923.8759 710.1113 921.9121 710.564 919.9483 710.564 916.937 710.564 914.4496 709.6586 912.4855 707.9984 910.5216 706.3384 909.4745 704.0747 909.4745 701.358 909.4745 699.5469 909.8671 698.0377 910.6529 696.6797 911.5693 695.3213 912.2238 694.2648 913.0093 693.5102 913.6638 692.9065 917.7225 690.6427 925.185 686.719 929.7672 684.3042 932.7787 682.4931 934.2187 681.1347 935.659 679.9275 936.8371 678.1164 937.8848 676.0037 938.8012 673.7397 939.3248 671.476 939.3248 669.0614ZM969.9605 706.0365C969.306 695.1702 969.044 684.455 969.044 674.0416 969.044 666.0431 969.8298 660.7607 971.5317 658.3462 973.2336 655.7805 975.5904 654.573 978.7323 654.573 981.089 654.573 983.5767 655.4786 986.3257 657.4405 987.3731 658.1951 987.897 658.497 988.1589 658.497 988.6825 658.497 988.9441 658.1951 988.9441 657.4405 988.9441 656.384 987.5041 654.4222 984.4929 651.8565 981.3509 649.2909 977.6849 648.0836 973.2336 648.0836 968.9134 648.0836 965.6402 649.8947 963.4147 653.3657 961.1889 656.837 960.1413 661.9683 960.1413 668.9103 960.1413 676.1546 960.5341 688.5298 961.3196 706.0365 961.0577 706.1873 958.9632 706.3384 955.2971 706.4892L951.5004 706.7911C950.5843 706.7911 950.0604 707.2438 950.0604 707.8476 950.0604 708.6022 950.5843 709.0549 951.6317 709.5076 953.3333 710.2621 956.2139 712.3751 960.4032 715.9972 964.4618 719.6193 966.8183 724.5995 967.4731 731.2399 967.604 732.9002 968.1276 733.8056 968.9134 733.8056 969.6986 733.8056 970.0914 733.2018 970.0914 731.6926 970.0914 731.2399 970.0914 730.7872 970.0914 730.3346 969.9605 728.3724 969.8298 726.2597 969.8298 723.6941L969.9605 712.2243 983.8383 712.3751C986.1951 712.3751 987.3731 712.0732 987.5041 711.4697 987.5041 709.2057 987.1115 707.6965 986.5877 707.093 984.3619 707.093 978.8632 706.7911 969.9605 706.0365ZM1027.6974 659.1008C1025.6026 655.4786 1023.1149 652.913 1020.2346 651.102 1017.3543 649.442 1014.0814 648.5363 1010.4157 648.5363 1006.0951 648.5363 1002.8222 649.8947 1000.3346 652.4603 997.8469 655.1768 996.6688 658.6481 996.6688 663.0245 996.6688 666.1939 997.4543 669.2122 998.8946 672.0797 1000.3346 674.9473 1002.0368 676.9091 1003.8694 678.1164 1005.8332 679.324 1009.1066 680.8331 1013.8195 682.795 1020.6278 685.3606 1024.6862 687.4736 1026.1264 689.2843 1027.4356 690.9446 1028.0903 693.2083 1028.0903 695.9248 1028.0903 700.3015 1027.1738 703.7728 1025.4719 706.1873 1023.6387 708.6022 1021.1513 709.8094 1017.8782 709.8094 1015.2598 709.8094 1013.165 709.2057 1011.8557 707.6965 1010.5466 706.3384 1009.4992 703.4709 1008.7135 699.3961 1007.928 694.8686 1006.2264 692.6046 1003.7387 692.6046 1002.6913 692.6046 1001.7748 693.2083 1000.5965 694.2648 999.4181 695.3213 998.8946 696.9813 998.8946 698.9434 998.8946 702.7163 1000.7271 705.8854 1004.2625 708.6022 1007.7973 711.3186 1012.6414 712.677 1018.7946 712.677 1023.6387 712.677 1027.5664 711.9224 1030.4467 710.2621 1033.458 708.753 1035.2908 706.9419 1035.9454 704.8293 1036.7311 702.7163 1037.1237 698.7923 1037.1237 692.9065L1036.7311 673.4381C1036.7311 666.0431 1037.1237 660.6099 1037.9096 657.5916 1038.695 654.4222 1040.2659 652.7622 1042.3604 652.7622 1042.8843 652.7622 1043.4081 652.7622 1044.1936 652.913L1045.372 653.0638C1046.2885 653.0638 1046.812 652.6111 1046.812 651.8565 1046.812 649.8947 1042.6224 648.989 1034.1128 648.989 1031.6251 648.989 1029.9231 649.5928 1029.1375 650.9511 1028.221 652.3092 1027.8283 654.8749 1027.6974 659.1008ZM1027.6974 687.7752C1026.3883 685.8133 1023.5081 683.5496 1019.0565 680.8331 1014.6053 678.1164 1011.3321 675.5508 1009.3683 673.1362 1007.5354 670.7214 1006.488 667.8539 1006.488 664.3828 1006.488 661.2134 1007.2735 658.6481 1008.8447 656.5351 1010.4157 654.2714 1012.5102 653.2149 1014.8672 653.2149 1017.2237 653.2149 1019.5801 654.1203 1021.8059 655.7805 1023.9007 657.5916 1025.4719 659.8553 1026.519 662.5718 1027.5664 665.2885 1028.0903 669.2122 1028.0903 674.4943 1028.0903 678.5691 1027.959 682.9458 1027.6974 687.7752Z" fill="#ffffff"/>
<path transform="matrix(1,0,0,-1,0,1701)" stroke-width="1.4173" stroke-linecap="butt" stroke-miterlimit="22.925585" stroke-linejoin="miter" fill="none" stroke="#150e3e" d="M939.3248 669.0614C939.3248 663.3264 937.4919 658.497 933.8261 654.4222 930.1603 650.3474 925.8398 648.2344 920.8647 648.2344 917.8534 648.2344 914.3186 649.2909 910.129 651.5546 907.9033 652.7622 906.5942 653.3657 906.2014 653.3657 905.4159 653.3657 904.7611 652.913 904.2375 651.7057 903.583 650.3474 902.9285 649.5928 902.274 649.5928 901.7501 649.5928 901.4882 650.3474 901.3572 651.7057 901.2263 653.0638 901.0956 656.384 901.0956 661.3645 901.0956 665.5901 900.9643 668.4576 900.8337 669.6649 900.8337 671.476 901.2263 672.3816 902.1427 672.3816 902.5356 672.3816 902.9285 671.9287 903.1901 671.0233 904.8923 665.4393 907.1181 660.6099 910.129 656.6859 913.1403 652.7622 916.6754 650.8001 920.7337 650.8001 923.614 650.8001 926.1017 651.8565 928.3272 653.8184 930.5529 655.9313 931.6003 658.6481 931.6003 662.1191 931.6003 667.5523 927.5417 672.2306 919.4244 676.4564 913.9258 679.324 910.129 681.4366 908.2962 682.795 906.4633 684.1534 904.8923 685.9641 903.8446 688.2282 902.7975 690.4919 902.274 692.9065 902.274 695.6232 902.274 700.6034 903.9759 704.8293 907.2488 708.3003 910.6529 711.7713 914.5806 713.4316 919.4244 713.4316 922.8285 713.4316 926.7562 712.2243 930.9458 709.6586 931.6003 709.2057 932.1242 709.0549 932.6477 709.0549 933.1713 709.0549 933.5642 709.5076 934.0877 710.2621 934.6116 711.1678 935.0045 711.4697 935.2664 711.4697 935.659 711.4697 935.9209 711.3186 936.1826 710.8659 936.3135 710.564 936.5754 708.3003 936.8371 704.3763 937.099 700.4526 937.23 697.1323 937.23 694.5667 937.23 692.9065 936.8371 692.1519 936.1826 692.1519 935.528 692.1519 935.0045 692.9065 934.6116 694.2648 934.2187 695.6232 933.3023 698.1888 931.6003 701.8106 929.8984 705.5838 927.9346 707.9984 925.9707 709.0549 923.8759 710.1113 921.9121 710.564 919.9483 710.564 916.937 710.564 914.4496 709.6586 912.4855 707.9984 910.5216 706.3384 909.4745 704.0747 909.4745 701.358 909.4745 699.5469 909.8671 698.0377 910.6529 696.6797 911.5693 695.3213 912.2238 694.2648 913.0093 693.5102 913.6638 692.9065 917.7225 690.6427 925.185 686.719 929.7672 684.3042 932.7787 682.4931 934.2187 681.1347 935.659 679.9275 936.8371 678.1164 937.8848 676.0037 938.8012 673.7397 939.3248 671.476 939.3248 669.0614ZM969.9605 706.0365C969.306 695.1702 969.044 684.455 969.044 674.0416 969.044 666.0431 969.8298 660.7607 971.5317 658.3462 973.2336 655.7805 975.5904 654.573 978.7323 654.573 981.089 654.573 983.5767 655.4786 986.3257 657.4405 987.3731 658.1951 987.897 658.497 988.1589 658.497 988.6825 658.497 988.9441 658.1951 988.9441 657.4405 988.9441 656.384 987.5041 654.4222 984.4929 651.8565 981.3509 649.2909 977.6849 648.0836 973.2336 648.0836 968.9134 648.0836 965.6402 649.8947 963.4147 653.3657 961.1889 656.837 960.1413 661.9683 960.1413 668.9103 960.1413 676.1546 960.5341 688.5298 961.3196 706.0365 961.0577 706.1873 958.9632 706.3384 955.2971 706.4892L951.5004 706.7911C950.5843 706.7911 950.0604 707.2438 950.0604 707.8476 950.0604 708.6022 950.5843 709.0549 951.6317 709.5076 953.3333 710.2621 956.2139 712.3751 960.4032 715.9972 964.4618 719.6193 966.8183 724.5995 967.4731 731.2399 967.604 732.9002 968.1276 733.8056 968.9134 733.8056 969.6986 733.8056 970.0914 733.2018 970.0914 731.6926 970.0914 731.2399 970.0914 730.7872 970.0914 730.3346 969.9605 728.3724 969.8298 726.2597 969.8298 723.6941L969.9605 712.2243 983.8383 712.3751C986.1951 712.3751 987.3731 712.0732 987.5041 711.4697 987.5041 709.2057 987.1115 707.6965 986.5877 707.093 984.3619 707.093 978.8632 706.7911 969.9605 706.0365ZM1027.6974 659.1008C1025.6026 655.4786 1023.1149 652.913 1020.2346 651.102 1017.3543 649.442 1014.0814 648.5363 1010.4157 648.5363 1006.0951 648.5363 1002.8222 649.8947 1000.3346 652.4603 997.8469 655.1768 996.6688 658.6481 996.6688 663.0245 996.6688 666.1939 997.4543 669.2122 998.8946 672.0797 1000.3346 674.9473 1002.0368 676.9091 1003.8694 678.1164 1005.8332 679.324 1009.1066 680.8331 1013.8195 682.795 1020.6278 685.3606 1024.6862 687.4736 1026.1264 689.2843 1027.4356 690.9446 1028.0903 693.2083 1028.0903 695.9248 1028.0903 700.3015 1027.1738 703.7728 1025.4719 706.1873 1023.6387 708.6022 1021.1513 709.8094 1017.8782 709.8094 1015.2598 709.8094 1013.165 709.2057 1011.8557 707.6965 1010.5466 706.3384 1009.4992 703.4709 1008.7135 699.3961 1007.928 694.8686 1006.2264 692.6046 1003.7387 692.6046 1002.6913 692.6046 1001.7748 693.2083 1000.5965 694.2648 999.4181 695.3213 998.8946 696.9813 998.8946 698.9434 998.8946 702.7163 1000.7271 705.8854 1004.2625 708.6022 1007.7973 711.3186 1012.6414 712.677 1018.7946 712.677 1023.6387 712.677 1027.5664 711.9224 1030.4467 710.2621 1033.458 708.753 1035.2908 706.9419 1035.9454 704.8293 1036.7311 702.7163 1037.1237 698.7923 1037.1237 692.9065L1036.7311 673.4381C1036.7311 666.0431 1037.1237 660.6099 1037.9096 657.5916 1038.695 654.4222 1040.2659 652.7622 1042.3604 652.7622 1042.8843 652.7622 1043.4081 652.7622 1044.1936 652.913L1045.372 653.0638C1046.2885 653.0638 1046.812 652.6111 1046.812 651.8565 1046.812 649.8947 1042.6224 648.989 1034.1128 648.989 1031.6251 648.989 1029.9231 649.5928 1029.1375 650.9511 1028.221 652.3092 1027.8283 654.8749 1027.6974 659.1008ZM1027.6974 687.7752C1026.3883 685.8133 1023.5081 683.5496 1019.0565 680.8331 1014.6053 678.1164 1011.3321 675.5508 1009.3683 673.1362 1007.5354 670.7214 1006.488 667.8539 1006.488 664.3828 1006.488 661.2134 1007.2735 658.6481 1008.8447 656.5351 1010.4157 654.2714 1012.5102 653.2149 1014.8672 653.2149 1017.2237 653.2149 1019.5801 654.1203 1021.8059 655.7805 1023.9007 657.5916 1025.4719 659.8553 1026.519 662.5718 1027.5664 665.2885 1028.0903 669.2122 1028.0903 674.4943 1028.0903 678.5691 1027.959 682.9458 1027.6974 687.7752Z"/>
<path transform="matrix(1,0,0,-1,0,1701)" d="M1069.0033 706.0365C1068.3485 695.1702 1068.0866 684.455 1068.0866 674.0416 1068.0866 666.0431 1068.8723 660.7607 1070.5742 658.3462 1072.2763 655.7805 1074.6329 654.573 1077.7748 654.573 1080.1315 654.573 1082.6192 655.4786 1085.3685 657.4405 1086.4157 658.1951 1086.9395 658.497 1087.2014 658.497 1087.725 658.497 1087.9869 658.1951 1087.9869 657.4405 1087.9869 656.384 1086.5469 654.4222 1083.5354 651.8565 1080.3934 649.2909 1076.7277 648.0836 1072.2763 648.0836 1067.9559 648.0836 1064.6828 649.8947 1062.4572 653.3657 1060.2315 656.837 1059.1838 661.9683 1059.1838 668.9103 1059.1838 676.1546 1059.5769 688.5298 1060.3624 706.0365 1060.1005 706.1873 1058.0057 706.3384 1054.3399 706.4892L1050.5429 706.7911C1049.6268 706.7911 1049.1029 707.2438 1049.1029 707.8476 1049.1029 708.6022 1049.6268 709.0549 1050.6742 709.5076 1052.3761 710.2621 1055.2564 712.3751 1059.4457 715.9972 1063.5043 719.6193 1065.8611 724.5995 1066.5156 731.2399 1066.6466 732.9002 1067.17 733.8056 1067.9559 733.8056 1068.7415 733.8056 1069.134 733.2018 1069.134 731.6926 1069.134 731.2399 1069.134 730.7872 1069.134 730.3346 1069.0033 728.3724 1068.8723 726.2597 1068.8723 723.6941L1069.0033 712.2243 1082.8809 712.3751C1085.2376 712.3751 1086.4157 712.0732 1086.5469 711.4697 1086.5469 709.2057 1086.154 707.6965 1085.6303 707.093 1083.4047 707.093 1077.906 706.7911 1069.0033 706.0365ZM1104.745 684.0023C1104.6141 681.5877 1104.4832 679.4748 1104.4832 678.1164 1104.4832 671.1741 1106.316 665.2885 1109.8511 660.4588 1113.3859 655.6294 1117.8374 653.2149 1123.0741 653.2149 1128.1802 653.2149 1133.024 655.6294 1137.3446 660.308 1138.6539 661.6664 1139.4395 662.2699 1139.8323 662.2699 1140.4868 662.2699 1140.8798 661.6664 1140.8798 660.308 1139.3084 656.9878 1136.5591 653.9695 1132.6314 651.7057 1128.7037 649.2909 1124.2525 648.0836 1119.5393 648.0836 1112.4694 648.0836 1106.447 651.102 1101.4722 656.837 1096.628 662.7229 1094.1403 670.2687 1094.1403 679.1729 1094.1403 688.8317 1096.8897 696.8305 1102.2575 703.3198 1107.6253 709.8094 1113.3859 712.9789 1119.5393 712.9789 1125.2999 712.9789 1130.4057 710.4132 1135.1192 705.4328 1139.7013 700.3015 1142.0578 694.4156 1142.0578 687.6244 1142.0578 686.5679 1141.9268 685.8133 1141.6652 685.3606 1141.4032 684.9079 1139.7013 684.606 1136.821 684.606ZM1104.745 687.7752C1110.2437 687.4736 1115.7423 687.3225 1120.8484 687.3225L1124.2525 687.6244C1126.8709 687.6244 1128.8347 688.2282 1130.1437 689.2843 1131.584 690.3408 1132.2388 692.303 1132.2388 694.8686 1132.2388 699.0942 1131.0606 702.7163 1128.5728 705.7346 1126.0855 708.9041 1123.2051 710.4132 1119.9319 710.4132 1116.79 710.4132 1113.7785 708.6022 1110.6366 705.1309 1107.6253 701.509 1105.6615 695.774 1104.745 687.7752Z" fill="#ffffff"/>
<path transform="matrix(1,0,0,-1,0,1701)" stroke-width="1.4173" stroke-linecap="butt" stroke-miterlimit="22.925585" stroke-linejoin="miter" fill="none" stroke="#150e3e" d="M1069.0033 706.0365C1068.3485 695.1702 1068.0866 684.455 1068.0866 674.0416 1068.0866 666.0431 1068.8723 660.7607 1070.5742 658.3462 1072.2763 655.7805 1074.6329 654.573 1077.7748 654.573 1080.1315 654.573 1082.6192 655.4786 1085.3685 657.4405 1086.4157 658.1951 1086.9395 658.497 1087.2014 658.497 1087.725 658.497 1087.9869 658.1951 1087.9869 657.4405 1087.9869 656.384 1086.5469 654.4222 1083.5354 651.8565 1080.3934 649.2909 1076.7277 648.0836 1072.2763 648.0836 1067.9559 648.0836 1064.6828 649.8947 1062.4572 653.3657 1060.2315 656.837 1059.1838 661.9683 1059.1838 668.9103 1059.1838 676.1546 1059.5769 688.5298 1060.3624 706.0365 1060.1005 706.1873 1058.0057 706.3384 1054.3399 706.4892L1050.5429 706.7911C1049.6268 706.7911 1049.1029 707.2438 1049.1029 707.8476 1049.1029 708.6022 1049.6268 709.0549 1050.6742 709.5076 1052.3761 710.2621 1055.2564 712.3751 1059.4457 715.9972 1063.5043 719.6193 1065.8611 724.5995 1066.5156 731.2399 1066.6466 732.9002 1067.17 733.8056 1067.9559 733.8056 1068.7415 733.8056 1069.134 733.2018 1069.134 731.6926 1069.134 731.2399 1069.134 730.7872 1069.134 730.3346 1069.0033 728.3724 1068.8723 726.2597 1068.8723 723.6941L1069.0033 712.2243 1082.8809 712.3751C1085.2376 712.3751 1086.4157 712.0732 1086.5469 711.4697 1086.5469 709.2057 1086.154 707.6965 1085.6303 707.093 1083.4047 707.093 1077.906 706.7911 1069.0033 706.0365ZM1104.745 684.0023C1104.6141 681.5877 1104.4832 679.4748 1104.4832 678.1164 1104.4832 671.1741 1106.316 665.2885 1109.8511 660.4588 1113.3859 655.6294 1117.8374 653.2149 1123.0741 653.2149 1128.1802 653.2149 1133.024 655.6294 1137.3446 660.308 1138.6539 661.6664 1139.4395 662.2699 1139.8323 662.2699 1140.4868 662.2699 1140.8798 661.6664 1140.8798 660.308 1139.3084 656.9878 1136.5591 653.9695 1132.6314 651.7057 1128.7037 649.2909 1124.2525 648.0836 1119.5393 648.0836 1112.4694 648.0836 1106.447 651.102 1101.4722 656.837 1096.628 662.7229 1094.1403 670.2687 1094.1403 679.1729 1094.1403 688.8317 1096.8897 696.8305 1102.2575 703.3198 1107.6253 709.8094 1113.3859 712.9789 1119.5393 712.9789 1125.2999 712.9789 1130.4057 710.4132 1135.1192 705.4328 1139.7013 700.3015 1142.0578 694.4156 1142.0578 687.6244 1142.0578 686.5679 1141.9268 685.8133 1141.6652 685.3606 1141.4032 684.9079 1139.7013 684.606 1136.821 684.606ZM1104.745 687.7752C1110.2437 687.4736 1115.7423 687.3225 1120.8484 687.3225L1124.2525 687.6244C1126.8709 687.6244 1128.8347 688.2282 1130.1437 689.2843 1131.584 690.3408 1132.2388 692.303 1132.2388 694.8686 1132.2388 699.0942 1131.0606 702.7163 1128.5728 705.7346 1126.0855 708.9041 1123.2051 710.4132 1119.9319 710.4132 1116.79 710.4132 1113.7785 708.6022 1110.6366 705.1309 1107.6253 701.509 1105.6615 695.774 1104.745 687.7752Z"/>
<path transform="matrix(1,0,0,-1,0,1701)" d="M746.9116 1048.0635V1053.6779H754.7094C763.4429 1053.6779 769.6811 1056.4852 773.1122 1062.0995 775.6075 1065.5307 776.5432 1073.0164 776.5432 1084.5573V1218.3673C776.5432 1231.1558 775.2954 1239.2654 772.1765 1242.6965 768.4336 1247.0632 762.5072 1249.2468 754.7094 1249.2468H746.9116V1254.8611H831.1277C862.0072 1254.8611 885.4004 1251.43 901.3079 1244.2561 917.5275 1237.394 930.6278 1225.5415 940.297 1209.3219 949.9663 1192.7907 954.957 1174.0759 954.957 1152.554 954.957 1123.8582 946.2234 1099.8408 928.7563 1080.5023 909.1057 1058.9804 879.474 1048.0635 839.2374 1048.0635ZM805.8628 1063.347C818.6513 1060.5399 829.5681 1058.9804 838.3017 1058.9804 861.6951 1058.9804 881.3458 1067.402 896.9411 1083.9334 912.225 1100.4647 920.0228 1122.9223 920.0228 1151.3064 920.0228 1179.6902 912.225 1202.148 896.9411 1218.6795 881.3458 1235.2107 861.3833 1243.3204 837.0541 1243.3204 828.0088 1243.3204 817.4038 1241.7608 805.8628 1238.9536Z" fill="#9f8f5e"/>
</g>
</svg>
